<svg viewBox="0 0 640 220" xmlns="http://www.w3.org/2000/svg" role="img" aria-label="14-Day Token Activity">
  <rect x="0" y="0" width="640" height="220" fill="#fcfcfb"/>
  <text x="56" y="18" font-size="13" font-weight="600" fill="#0b0b0b">14-Day Token Activity</text>
  <line x1="56.00" y1="188.00" x2="624.00" y2="188.00" stroke="#e1e0d9" stroke-width="1"/>
  <text x="48.00" y="192.00" text-anchor="end" font-size="11" fill="#898781">0</text>
  <line x1="56.00" y1="134.67" x2="624.00" y2="134.67" stroke="#e1e0d9" stroke-width="1"/>
  <text x="48.00" y="138.67" text-anchor="end" font-size="11" fill="#898781">2,000,000</text>
  <line x1="56.00" y1="81.33" x2="624.00" y2="81.33" stroke="#e1e0d9" stroke-width="1"/>
  <text x="48.00" y="85.33" text-anchor="end" font-size="11" fill="#898781">4,000,000</text>
  <line x1="56.00" y1="28.00" x2="624.00" y2="28.00" stroke="#e1e0d9" stroke-width="1"/>
  <text x="48.00" y="32.00" text-anchor="end" font-size="11" fill="#898781">6,000,000</text>
  <line x1="56.00" y1="188.00" x2="624.00" y2="188.00" stroke="#c3c2b7" stroke-width="1"/>
  <path d="M 56.00,169.53 L 99.69,185.40 L 143.38,181.15 L 187.08,174.54 L 230.77,172.66 L 274.46,179.91 L 318.15,170.88 L 361.85,160.37 L 405.54,162.16" fill="none" stroke="#2a78d6" stroke-width="2" stroke-linejoin="round" stroke-linecap="round"/>
  <path d="M 492.92,142.84 L 536.62,44.39 L 580.31,188.00" fill="none" stroke="#2a78d6" stroke-width="2" stroke-linejoin="round" stroke-linecap="round"/>
  <circle cx="580.31" cy="188.00" r="4" fill="#2a78d6" stroke="#fcfcfb" stroke-width="2"/>
  <text x="580.31" y="178.00" text-anchor="end" font-size="11" font-weight="600" fill="#0b0b0b">0</text>
</svg>
