<svg xmlns="http://www.w3.org/2000/svg" class="main-svg" height="390" style="" viewBox="0 0 960 390" width="960"><rect height="390" style="fill: rgb(255, 255, 255); fill-opacity: 1;" width="960" x="0" y="0" /><defs id="defs-agentusage"><g class="clips"><clipPath class="plotclip" id="clipagentusagexyplot"><rect height="258" width="848" /></clipPath><clipPath class="axesclip" id="clipagentusagex"><rect height="390" width="848" x="76" y="0" /></clipPath><clipPath class="axesclip" id="clipagentusagey"><rect height="258" width="960" x="0" y="60" /></clipPath><clipPath class="axesclip" id="clipagentusagexy"><rect height="258" width="848" x="76" y="60" /></clipPath></g><g class="gradients" /><g class="patterns" /></defs><g class="bglayer" /><g class="layer-below"><g class="imagelayer" /><g class="shapelayer" /></g><g class="cartesianlayer"><g class="subplot xy"><g class="layer-subplot"><g class="shapelayer" /><g class="imagelayer" /></g><g class="minor-gridlayer"><g class="x" /><g class="y" /></g><g class="gridlayer"><g class="x" /><g class="y"><path class="ygrid crisp" d="M76,0h848" style="stroke: rgb(229, 231, 235); stroke-opacity: 1; stroke-width: 1px;" transform="translate(0,272.49)" /><path class="ygrid crisp" d="M76,0h848" style="stroke: rgb(229, 231, 235); stroke-opacity: 1; stroke-width: 1px;" transform="translate(0,226.98)" /><path class="ygrid crisp" d="M76,0h848" style="stroke: rgb(229, 231, 235); stroke-opacity: 1; stroke-width: 1px;" transform="translate(0,181.47)" /><path class="ygrid crisp" d="M76,0h848" style="stroke: rgb(229, 231, 235); stroke-opacity: 1; stroke-width: 1px;" transform="translate(0,135.95999999999998)" /><path class="ygrid crisp" d="M76,0h848" style="stroke: rgb(229, 231, 235); stroke-opacity: 1; stroke-width: 1px;" transform="translate(0,90.45)" /></g></g><g class="zerolinelayer"><path class="yzl zl crisp" d="M76,0h848" style="stroke: rgb(229, 231, 235); stroke-opacity: 1; stroke-width: 2px;" transform="translate(0,318)" /></g><g class="layer-between"><g class="shapelayer" /><g class="imagelayer" /></g><path class="xlines-below" /><path class="ylines-below" /><g class="overlines-below" /><g class="xaxislayer-below" /><g class="yaxislayer-below" /><g class="overaxes-below" /><g class="overplot"><g class="xy" clip-path="url(#clipagentusagexyplot)" transform="translate(76,60)"><g class="scatterlayer mlayer"><g class="trace scatter trace" style="stroke-miterlimit: 2;"><g class="fills"><g><path class="js-fill" d="M848,258L0,258L0,228.5L65.23,253.56L130.46,246.53L195.69,237.4L260.92,233.49L326.15,244.68L391.38,229.5L456.62,212.5L521.85,216.96L587.08,258L652.31,186.63L717.54,42.25L782.77,258L848,258" style="fill: rgb(37, 99, 235); fill-opacity: 1; stroke-width: 0;" /></g><g><path class="js-fill" d="M0,226.74L65.23,253.56L130.46,246.36L195.69,235.68L260.92,232.17L326.15,244.28L391.38,228.96L456.62,211.41L521.85,214.91L587.08,258L652.31,182.62L717.54,22.02L782.77,258L848,258L848,258L782.77,258L717.54,42.25L652.31,186.63L587.08,258L521.85,216.96L456.62,212.5L391.38,229.5L326.15,244.68L260.92,233.49L195.69,237.4L130.46,246.53L65.23,253.56L0,228.5Z" style="fill: rgb(20, 184, 166); fill-opacity: 1; stroke-width: 0;" /></g></g><g class="errorbars" /><g class="lines"><path class="js-line" d="M0,228.5L65.23,253.56L130.46,246.53L195.69,237.4L260.92,233.49L326.15,244.68L391.38,229.5L456.62,212.5L521.85,216.96L587.08,258L652.31,186.63L717.54,42.25L782.77,258L848,258" style="vector-effect: none; fill: none; stroke: rgb(37, 99, 235); stroke-opacity: 1; stroke-width: 2px; opacity: 1;" /></g><g class="points" /><g class="text" /></g><g class="trace scatter trace" style="stroke-miterlimit: 2;"><g class="fills"><g><path class="js-fill" d="M0,226.48L65.23,253.56L130.46,246.32L195.69,235.02L260.92,231.82L326.15,244.19L391.38,228.77L456.62,210.85L521.85,213.89L587.08,258L652.31,180.93L717.54,12.9L782.77,258L848,258L848,258L782.77,258L717.54,22.02L652.31,182.62L587.08,258L521.85,214.91L456.62,211.41L391.38,228.96L326.15,244.28L260.92,232.17L195.69,235.68L130.46,246.36L65.23,253.56L0,226.74Z" style="fill: rgb(168, 85, 247); fill-opacity: 1; stroke-width: 0;" /></g></g><g class="errorbars" /><g class="lines"><path class="js-line" d="M0,226.74L65.23,253.56L130.46,246.36L195.69,235.68L260.92,232.17L326.15,244.28L391.38,228.96L456.62,211.41L521.85,214.91L587.08,258L652.31,182.62L717.54,22.02L782.77,258L848,258" style="vector-effect: none; fill: none; stroke: rgb(20, 184, 166); stroke-opacity: 1; stroke-width: 2px; opacity: 1;" /></g><g class="points" /><g class="text" /></g><g class="trace scatter trace" style="stroke-miterlimit: 2;"><g class="fills" /><g class="errorbars" /><g class="lines"><path class="js-line" d="M0,226.48L65.23,253.56L130.46,246.32L195.69,235.02L260.92,231.82L326.15,244.19L391.38,228.77L456.62,210.85L521.85,213.89L587.08,258L652.31,180.93L717.54,12.9L782.77,258L848,258" style="vector-effect: none; fill: none; stroke: rgb(168, 85, 247); stroke-opacity: 1; stroke-width: 2px; opacity: 1;" /></g><g class="points" /><g class="text" /></g></g></g></g><path class="xlines-above crisp" d="M75,318.5H924" style="fill: none; stroke-width: 1px; stroke: rgb(107, 114, 128); stroke-opacity: 1;" /><path class="ylines-above crisp" d="M75.5,60V318" style="fill: none; stroke-width: 1px; stroke: rgb(107, 114, 128); stroke-opacity: 1;" /><g class="overlines-above" /><g class="xaxislayer-above"><g class="xtick"><text style="font-family: Arial, sans-serif; font-size: 13px; fill: rgb(107, 114, 128); fill-opacity: 1; white-space: pre; opacity: 1;" text-anchor="end" transform="translate(76,0) rotate(-35,0,328.1)" x="0" y="334.6">Jul 06</text></g><g class="xtick"><text style="font-family: Arial, sans-serif; font-size: 13px; fill: rgb(107, 114, 128); fill-opacity: 1; white-space: pre; opacity: 1;" text-anchor="end" transform="translate(206.46,0) rotate(-35,0,328.1)" x="0" y="334.6">Jul 08</text></g><g class="xtick"><text style="font-family: Arial, sans-serif; font-size: 13px; fill: rgb(107, 114, 128); fill-opacity: 1; white-space: pre; opacity: 1;" text-anchor="end" transform="translate(336.92,0) rotate(-35,0,328.1)" x="0" y="334.6">Jul 10</text></g><g class="xtick"><text style="font-family: Arial, sans-serif; font-size: 13px; fill: rgb(107, 114, 128); fill-opacity: 1; white-space: pre; opacity: 1;" text-anchor="end" transform="translate(467.38,0) rotate(-35,0,328.1)" x="0" y="334.6">Jul 12</text></g><g class="xtick"><text style="font-family: Arial, sans-serif; font-size: 13px; fill: rgb(107, 114, 128); fill-opacity: 1; white-space: pre; opacity: 1;" text-anchor="end" transform="translate(597.85,0) rotate(-35,0,328.1)" x="0" y="334.6">Jul 14</text></g><g class="xtick"><text style="font-family: Arial, sans-serif; font-size: 13px; fill: rgb(107, 114, 128); fill-opacity: 1; white-space: pre; opacity: 1;" text-anchor="end" transform="translate(728.31,0) rotate(-35,0,328.1)" x="0" y="334.6">Jul 16</text></g><g class="xtick"><text style="font-family: Arial, sans-serif; font-size: 13px; fill: rgb(107, 114, 128); fill-opacity: 1; white-space: pre; opacity: 1;" text-anchor="end" transform="translate(858.77,0) rotate(-35,0,328.1)" x="0" y="334.6">Jul 18</text></g></g><g class="yaxislayer-above"><g class="ytick"><text style="font-family: Arial, sans-serif; font-size: 13px; fill: rgb(107, 114, 128); fill-opacity: 1; white-space: pre; opacity: 1;" text-anchor="end" transform="translate(0,318)" x="72.4" y="4.55">0</text></g><g class="ytick"><text style="font-family: Arial, sans-serif; font-size: 13px; fill: rgb(107, 114, 128); fill-opacity: 1; white-space: pre; opacity: 1;" text-anchor="end" transform="translate(0,272.49)" x="72.4" y="4.55">1M</text></g><g class="ytick"><text style="font-family: Arial, sans-serif; font-size: 13px; fill: rgb(107, 114, 128); fill-opacity: 1; white-space: pre; opacity: 1;" text-anchor="end" transform="translate(0,226.98)" x="72.4" y="4.55">2M</text></g><g class="ytick"><text style="font-family: Arial, sans-serif; font-size: 13px; fill: rgb(107, 114, 128); fill-opacity: 1; white-space: pre; opacity: 1;" text-anchor="end" transform="translate(0,181.47)" x="72.4" y="4.55">3M</text></g><g class="ytick"><text style="font-family: Arial, sans-serif; font-size: 13px; fill: rgb(107, 114, 128); fill-opacity: 1; white-space: pre; opacity: 1;" text-anchor="end" transform="translate(0,135.95999999999998)" x="72.4" y="4.55">4M</text></g><g class="ytick"><text style="font-family: Arial, sans-serif; font-size: 13px; fill: rgb(107, 114, 128); fill-opacity: 1; white-space: pre; opacity: 1;" text-anchor="end" transform="translate(0,90.45)" x="72.4" y="4.55">5M</text></g></g><g class="overaxes-above" /></g></g><g class="polarlayer" /><g class="smithlayer" /><g class="ternarylayer" /><g class="geolayer" /><g class="funnelarealayer" /><g class="pielayer" /><g class="iciclelayer" /><g class="treemaplayer" /><g class="sunburstlayer" /><g class="glimages" /><defs id="topdefs-agentusage"><g class="clips" /><clipPath id="legendagentusage"><rect height="30" width="266" x="0" y="0" /></clipPath></defs><g class="layer-above"><g class="imagelayer" /><g class="shapelayer" /></g><g class="infolayer"><g class="legend" pointer-events="all" transform="translate(76,21.300000000000026)"><rect class="bg" height="30" shape-rendering="crispEdges" style="stroke: rgb(68, 68, 68); stroke-opacity: 1; fill: rgb(255, 255, 255); fill-opacity: 1; stroke-width: 0px;" width="266" x="0" y="0" /><g class="scrollbox" clip-path="url(#legendagentusage)" transform=""><g class="groups"><g class="traces" style="opacity: 1;" transform="translate(0,14.950000000000001)"><text class="legendtext" style="font-family: Arial, sans-serif; font-size: 13px; fill: rgb(17, 24, 39); fill-opacity: 1; white-space: pre;" text-anchor="start" x="40" y="5.07">Input</text><g class="layers"><g class="legendfill"><path class="js-fill" d="M5,-2h30v6h-30z" style="stroke-width: 0; fill: rgb(37, 99, 235); fill-opacity: 1;" /></g><g class="legendlines"><path class="js-line" d="M5,-2h30" style="fill: none; stroke: rgb(37, 99, 235); stroke-opacity: 1; stroke-width: 2px;" /></g><g class="legendsymbols"><g class="legendpoints" /></g></g><rect class="legendtoggle" height="19.900000000000002" style="fill: rgb(0, 0, 0); fill-opacity: 0;" width="71.421875" x="0" y="-9.950000000000001" /></g><g class="traces" style="opacity: 1;" transform="translate(73.921875,14.950000000000001)"><text class="legendtext" style="font-family: Arial, sans-serif; font-size: 13px; fill: rgb(17, 24, 39); fill-opacity: 1; white-space: pre;" text-anchor="start" x="40" y="5.07">Output</text><g class="layers"><g class="legendfill"><path class="js-fill" d="M5,-2h30v6h-30z" style="stroke-width: 0; fill: rgb(20, 184, 166); fill-opacity: 1;" /></g><g class="legendlines"><path class="js-line" d="M5,-2h30" style="fill: none; stroke: rgb(20, 184, 166); stroke-opacity: 1; stroke-width: 2px;" /></g><g class="legendsymbols"><g class="legendpoints" /></g></g><rect class="legendtoggle" height="19.900000000000002" style="fill: rgb(0, 0, 0); fill-opacity: 0;" width="81.53125" x="0" y="-9.950000000000001" /></g><g class="traces" style="opacity: 1;" transform="translate(157.953125,14.950000000000001)"><text class="legendtext" style="font-family: Arial, sans-serif; font-size: 13px; fill: rgb(17, 24, 39); fill-opacity: 1; white-space: pre;" text-anchor="start" x="40" y="5.07">Reasoning</text><g class="layers"><g class="legendfill"><path class="js-fill" d="M5,-2h30v6h-30z" style="stroke-width: 0; fill: rgb(168, 85, 247); fill-opacity: 1;" /></g><g class="legendlines"><path class="js-line" d="M5,-2h30" style="fill: none; stroke: rgb(168, 85, 247); stroke-opacity: 1; stroke-width: 2px;" /></g><g class="legendsymbols"><g class="legendpoints" /></g></g><rect class="legendtoggle" height="19.900000000000002" style="fill: rgb(0, 0, 0); fill-opacity: 0;" width="104.65625" x="0" y="-9.950000000000001" /></g></g></g><rect class="scrollbar" height="0" rx="20" ry="3" style="fill: rgb(128, 139, 164); fill-opacity: 1;" width="0" x="0" y="0" /></g><g class="g-gtitle"><text class="gtitle" dy="0em" style="opacity: 1; font-family: Arial, sans-serif; font-size: 18px; fill: rgb(17, 24, 39); fill-opacity: 1; white-space: pre;" text-anchor="start" x="0" y="30">Total Activity</text></g><g class="g-xtitle" /><g class="g-ytitle"><text class="ytitle" style="opacity: 1; font-family: Arial, sans-serif; font-size: 16px; fill: rgb(17, 24, 39); fill-opacity: 1; white-space: pre;" text-anchor="middle" transform="rotate(-90,34.228125,189)" x="34.228125" y="189">Tokens</text></g></g></svg>